<?xml version="1.0" encoding="UTF-8"?><svg id="uuid-4a55f7c7-4d08-43e3-adc9-49c76ff67246" xmlns="http://www.w3.org/2000/svg" xmlns:xlink="http://www.w3.org/1999/xlink" viewBox="0 0 200 170"><defs><linearGradient id="uuid-df0cd88d-ebd9-4d1a-99d7-48d36524002c" x1="0" y1="85" x2="200" y2="85" gradientUnits="userSpaceOnUse"><stop offset="0" stop-color="#96c8ea"/><stop offset="1" stop-color="#127dd6"/></linearGradient></defs><g id="uuid-c96314a5-e554-4eaf-b736-2f2dd3b25b70"><g id="uuid-7f3120ff-6fbf-4aed-8c45-118cf5f79100"><path id="uuid-1a576ced-b309-4375-802b-68a1693c1a98" d="m140,105h56c2.21,0,4,1.79,4,4v11c0,27.61-22.39,50-50,50H50c-27.61,0-50-22.39-50-50v-11c0-2.21,1.79-4,4-4h56c3.11,0,6.07,1.43,7.94,3.92,7.3,9.76,18.94,16.08,32.06,16.08s24.76-6.31,32.06-16.08c1.86-2.49,4.82-3.92,7.94-3.92ZM150,0H50C22.39,0,0,22.39,0,50v11c0,2.21,1.79,4,4,4h56c3.11,0,6.07-1.43,7.94-3.92,7.3-9.76,18.94-16.08,32.06-16.08s24.76,6.31,32.06,16.08c1.86,2.49,4.82,3.92,7.94,3.92h56c2.21,0,4-1.79,4-4v-11c0-27.61-22.39-50-50-50Z" style="fill:url(#uuid-df0cd88d-ebd9-4d1a-99d7-48d36524002c);"/></g></g></svg>