<?xml version="1.0" encoding="UTF-8"?><svg id="uuid-4c8f19bc-fc62-4865-90ae-8ea7b1d6f1dd" xmlns="http://www.w3.org/2000/svg" viewBox="0 0 420 100"><g id="uuid-60cb2499-4a65-416a-b00d-a730d2171b4a"><g id="uuid-df32784b-2a9e-4c69-8a8e-d596c76493e8"><path id="uuid-88f9cfe8-f6bc-4bc5-9d6f-de4455c37fdc" d="m420,26v68c0,3.31-2.69,6-6,6h-8c-3.31,0-6-2.69-6-6V26c0-3.31,2.69-6,6-6h8c3.31,0,6,2.69,6,6Zm-6-26h-8c-3.31,0-6,2.69-6,6v2c0,3.31,2.69,6,6,6h8c3.31,0,6-2.69,6-6v-2c0-3.31-2.69-6-6-6Zm-26,60c0,22.09-17.91,40-40,40-7.29,0-14.14-1.96-20.03-5.37-.32,3.02-2.87,5.37-5.97,5.37h-8c-3.31,0-6-2.69-6-6V6c0-3.31,2.69-6,6-6h8c3.31,0,6,2.69,6,6v19.35c5.89-3.4,12.72-5.35,20-5.35,22.09,0,40,17.91,40,40Zm-20,0c0-11.05-8.95-20-20-20s-20,8.95-20,20,8.95,20,20,20,20-8.95,20-20ZM284,0h-8c-3.31,0-6,2.69-6,6v88c0,3.31,2.69,6,6,6h8c3.31,0,6-2.69,6-6V6c0-3.31-2.69-6-6-6Zm-30,60c0,22.09-17.91,40-40,40s-40-17.91-40-40,17.91-40,40-40,40,17.91,40,40Zm-20,0c0-11.05-8.95-20-20-20s-20,8.95-20,20,8.95,20,20,20,20-8.95,20-20Zm-72,0c0,22.09-17.91,40-40,40s-40-17.91-40-40,17.91-40,40-40,40,17.91,40,40Zm-20,0c0-11.05-8.95-20-20-20s-20,8.95-20,20,8.95,20,20,20,20-8.95,20-20Zm-78-20c3.31,0,6-2.69,6-6v-8c0-3.31-2.69-6-6-6h-19V6c0-3.31-2.69-6-6-6h-8c-3.31,0-6,2.69-6,6v14H6c-3.31,0-6,2.69-6,6v8c0,3.31,2.69,6,6,6h19v48c0,6.63,5.37,12,12,12h27c3.31,0,6-2.69,6-6v-8c0-3.31-2.69-6-6-6h-16c-1.66,0-3-1.34-3-3v-37h19Z"/></g></g></svg>