<?xml version="1.0" encoding="UTF-8"?><svg id="uuid-c5c87dbb-b4e4-4340-b38a-406018463307" xmlns="http://www.w3.org/2000/svg" viewBox="0 0 200 170"><g id="uuid-45d037ff-10ce-48ea-85ac-ee663f0320b0"><g id="uuid-aefb1975-72f1-4202-a83e-594e2739abd4"><path id="uuid-97463a59-220a-4078-ad4e-c557df18e45e" d="m140,105h56c2.21,0,4,1.79,4,4v11c0,27.61-22.39,50-50,50H50c-27.61,0-50-22.39-50-50v-11c0-2.21,1.79-4,4-4h56c3.11,0,6.07,1.43,7.94,3.92,7.3,9.76,18.94,16.08,32.06,16.08s24.76-6.31,32.06-16.08c1.86-2.49,4.82-3.92,7.94-3.92ZM150,0H50C22.39,0,0,22.39,0,50v11c0,2.21,1.79,4,4,4h56c3.11,0,6.07-1.43,7.94-3.92,7.3-9.76,18.94-16.08,32.06-16.08s24.76,6.31,32.06,16.08c1.86,2.49,4.82,3.92,7.94,3.92h56c2.21,0,4-1.79,4-4v-11c0-27.61-22.39-50-50-50Z" style="fill:#fff;"/></g></g></svg>