<?xml version="1.0" encoding="UTF-8"?><svg id="uuid-4588ccf5-ddcf-48f6-8342-9412b2e2a40e" xmlns="http://www.w3.org/2000/svg" viewBox="0 0 420 100"><g id="uuid-3ccab562-01f6-4db4-bf3d-5abcfdd91a7c"><g id="uuid-fb092834-2dab-42aa-8500-e5577483e328"><path id="uuid-a157447b-23ef-41b3-a51b-d1af72eb1d75" d="m420,26v68c0,3.31-2.69,6-6,6h-8c-3.31,0-6-2.69-6-6V26c0-3.31,2.69-6,6-6h8c3.31,0,6,2.69,6,6Zm-6-26h-8c-3.31,0-6,2.69-6,6v2c0,3.31,2.69,6,6,6h8c3.31,0,6-2.69,6-6v-2c0-3.31-2.69-6-6-6Zm-26,60c0,22.09-17.91,40-40,40-7.29,0-14.14-1.96-20.03-5.37-.32,3.02-2.87,5.37-5.97,5.37h-8c-3.31,0-6-2.69-6-6V6c0-3.31,2.69-6,6-6h8c3.31,0,6,2.69,6,6v19.35c5.89-3.4,12.72-5.35,20-5.35,22.09,0,40,17.91,40,40Zm-20,0c0-11.05-8.95-20-20-20s-20,8.95-20,20,8.95,20,20,20,20-8.95,20-20ZM284,0h-8c-3.31,0-6,2.69-6,6v88c0,3.31,2.69,6,6,6h8c3.31,0,6-2.69,6-6V6c0-3.31-2.69-6-6-6Zm-30,60c0,22.09-17.91,40-40,40s-40-17.91-40-40,17.91-40,40-40,40,17.91,40,40Zm-20,0c0-11.05-8.95-20-20-20s-20,8.95-20,20,8.95,20,20,20,20-8.95,20-20Zm-72,0c0,22.09-17.91,40-40,40s-40-17.91-40-40,17.91-40,40-40,40,17.91,40,40Zm-20,0c0-11.05-8.95-20-20-20s-20,8.95-20,20,8.95,20,20,20,20-8.95,20-20Zm-78-20c3.31,0,6-2.69,6-6v-8c0-3.31-2.69-6-6-6h-19V6c0-3.31-2.69-6-6-6h-8c-3.31,0-6,2.69-6,6v14H6c-3.31,0-6,2.69-6,6v8c0,3.31,2.69,6,6,6h19v48c0,6.63,5.37,12,12,12h27c3.31,0,6-2.69,6-6v-8c0-3.31-2.69-6-6-6h-16c-1.66,0-3-1.34-3-3v-37h19Z" style="fill:#fff;"/></g></g></svg>