<?xml version="1.0" encoding="UTF-8"?><svg id="uuid-c77a8f5b-159d-4c8e-bc31-0753df4e07b7" xmlns="http://www.w3.org/2000/svg" xmlns:xlink="http://www.w3.org/1999/xlink" viewBox="0 0 660 170"><defs><linearGradient id="uuid-2e7a019d-2a8e-4461-ae26-c9a930db0af8" x1="0" y1="85" x2="200" y2="85" gradientUnits="userSpaceOnUse"><stop offset="0" stop-color="#96c8ea"/><stop offset="1" stop-color="#127dd6"/></linearGradient></defs><g id="uuid-e56d4288-1000-4a08-89cb-86374cde647b"><g id="uuid-17006518-d5ed-47e2-b97d-80b0133c5d2f"><path id="uuid-c0ea5f7e-cbf6-45b6-bc87-4cb852237fd4" d="m660,61v68c0,3.31-2.69,6-6,6h-8c-3.31,0-6-2.69-6-6V61c0-3.31,2.69-6,6-6h8c3.31,0,6,2.69,6,6Zm-6-26h-8c-3.31,0-6,2.69-6,6v2c0,3.31,2.69,6,6,6h8c3.31,0,6-2.69,6-6v-2c0-3.31-2.69-6-6-6Zm-26,60c0,22.09-17.91,40-40,40-7.29,0-14.14-1.96-20.03-5.37-.32,3.02-2.87,5.37-5.97,5.37h-8c-3.31,0-6-2.69-6-6V41c0-3.31,2.69-6,6-6h8c3.31,0,6,2.69,6,6v19.35c5.89-3.4,12.72-5.35,20-5.35,22.09,0,40,17.91,40,40Zm-20,0c0-11.05-8.95-20-20-20s-20,8.95-20,20,8.95,20,20,20,20-8.95,20-20Zm-84-60h-8c-3.31,0-6,2.69-6,6v88c0,3.31,2.69,6,6,6h8c3.31,0,6-2.69,6-6V41c0-3.31-2.69-6-6-6Zm-30,60c0,22.09-17.91,40-40,40s-40-17.91-40-40,17.91-40,40-40,40,17.91,40,40Zm-20,0c0-11.05-8.95-20-20-20s-20,8.95-20,20,8.95,20,20,20,20-8.95,20-20Zm-72,0c0,22.09-17.91,40-40,40s-40-17.91-40-40,17.91-40,40-40,40,17.91,40,40Zm-20,0c0-11.05-8.95-20-20-20s-20,8.95-20,20,8.95,20,20,20,20-8.95,20-20Zm-78-20c3.31,0,6-2.69,6-6v-8c0-3.31-2.69-6-6-6h-19v-14c0-3.31-2.69-6-6-6h-8c-3.31,0-6,2.69-6,6v14h-19c-3.31,0-6,2.69-6,6v8c0,3.31,2.69,6,6,6h19v48c0,6.63,5.37,12,12,12h27c3.31,0,6-2.69,6-6v-8c0-3.31-2.69-6-6-6h-16c-1.66,0-3-1.34-3-3v-37h19Z"/><path id="uuid-86d7576b-4280-46c8-870c-83eafc824a21" d="m140,105h56c2.21,0,4,1.79,4,4v11c0,27.61-22.39,50-50,50H50c-27.61,0-50-22.39-50-50v-11c0-2.21,1.79-4,4-4h56c3.11,0,6.07,1.43,7.94,3.92,7.3,9.76,18.94,16.08,32.06,16.08s24.76-6.31,32.06-16.08c1.86-2.49,4.82-3.92,7.94-3.92ZM150,0H50C22.39,0,0,22.39,0,50v11c0,2.21,1.79,4,4,4h56c3.11,0,6.07-1.43,7.94-3.92,7.3-9.76,18.94-16.08,32.06-16.08s24.76,6.31,32.06,16.08c1.86,2.49,4.82,3.92,7.94,3.92h56c2.21,0,4-1.79,4-4v-11c0-27.61-22.39-50-50-50Z" style="fill:url(#uuid-2e7a019d-2a8e-4461-ae26-c9a930db0af8);"/></g></g></svg>