<?xml version="1.0" encoding="UTF-8"?><svg id="uuid-d7ff9f46-bf99-4146-976d-43aa7e6ee8f6" xmlns="http://www.w3.org/2000/svg" xmlns:xlink="http://www.w3.org/1999/xlink" viewBox="0 0 160 180"><defs><linearGradient id="uuid-29582e01-b55c-401b-a3ef-bd3e518b912d" x1="0" y1="90" x2="160" y2="90" gradientUnits="userSpaceOnUse"><stop offset="0" stop-color="#d8a4a4"/><stop offset="1" stop-color="#d34242"/></linearGradient></defs><g id="uuid-ac78b097-9196-41f6-8b2d-c98bd9fd4fba"><g id="uuid-86104342-d02c-49cd-b3f8-7d6218fa5ad6"><path id="uuid-ece71d64-0ad9-4314-a684-d874b5664d8e" d="m160,130c0,.52-.01,1.03-.04,1.54-.82,26.9-22.87,48.46-49.96,48.46H30c-16.57,0-30-13.43-30-30v-50h130c16.57,0,30,13.43,30,30Zm-.04-81.54c-.82-26.9-22.87-48.46-49.96-48.46H30C13.43,0,0,13.43,0,30v50h130c16.57,0,30-13.43,30-30,0-.52-.01-1.03-.04-1.54Z" style="fill:url(#uuid-29582e01-b55c-401b-a3ef-bd3e518b912d);"/></g></g></svg>