<?xml version="1.0" encoding="UTF-8"?><svg id="uuid-2242bd84-0999-47a2-909b-212fc48fabb0" xmlns="http://www.w3.org/2000/svg" viewBox="0 0 200 170"><g id="uuid-4a7ca2c4-701a-4bec-ae7f-0946b6629166"><g id="uuid-e98dfded-42ca-4c41-8fa9-b096f4a97d5c"><path id="uuid-8d5ab6c5-7530-4cbc-b30c-d58ad211fe89" d="m140,105h56c2.21,0,4,1.79,4,4v11c0,27.61-22.39,50-50,50H50c-27.61,0-50-22.39-50-50v-11c0-2.21,1.79-4,4-4h56c3.11,0,6.07,1.43,7.94,3.92,7.3,9.76,18.94,16.08,32.06,16.08s24.76-6.31,32.06-16.08c1.86-2.49,4.82-3.92,7.94-3.92ZM150,0H50C22.39,0,0,22.39,0,50v11c0,2.21,1.79,4,4,4h56c3.11,0,6.07-1.43,7.94-3.92,7.3-9.76,18.94-16.08,32.06-16.08s24.76,6.31,32.06,16.08c1.86,2.49,4.82,3.92,7.94,3.92h56c2.21,0,4-1.79,4-4v-11c0-27.61-22.39-50-50-50Z"/></g></g></svg>