<?xml version="1.0" encoding="UTF-8"?><svg id="uuid-4685e790-4b53-47ee-a9fb-370bf28bde6e" xmlns="http://www.w3.org/2000/svg" xmlns:xlink="http://www.w3.org/1999/xlink" viewBox="0 0 160 180"><defs><linearGradient id="uuid-6b1abcde-f35e-4688-956b-81a4d38afa66" x1="0" y1="90" x2="160" y2="90" gradientUnits="userSpaceOnUse"><stop offset="0" stop-color="#baa4dd"/><stop offset="1" stop-color="#6c3fd8"/></linearGradient></defs><g id="uuid-5cf3ee47-9bdd-45bc-b23a-1a25aa1d81c2"><g id="uuid-511109fc-908c-47b2-9255-4bb453c10c64"><path id="uuid-715b05fe-7aaf-4756-8e80-279873c05251" d="m160,130c0,.52-.01,1.03-.04,1.54-.82,26.9-22.87,48.46-49.96,48.46H30c-16.57,0-30-13.43-30-30v-50h130c16.57,0,30,13.43,30,30Zm-.04-81.54c-.82-26.9-22.87-48.46-49.96-48.46H30C13.43,0,0,13.43,0,30v50h130c16.57,0,30-13.43,30-30,0-.52-.01-1.03-.04-1.54Z" style="fill:url(#uuid-6b1abcde-f35e-4688-956b-81a4d38afa66);"/></g></g></svg>